%TF.GenerationSoftware,KiCad,Pcbnew,10.0.6*%
%TF.CreationDate,2026-09-20T18:46:50+05:30*%
%TF.ProjectId,project2,70726f6a-6563-4743-922e-6b696361645f,rev?*%
%TF.SameCoordinates,Original*%
%TF.FileFunction,Legend,Top*%
%TF.FilePolarity,Positive*%
%FSLAX46Y46*%
G04 Gerber Fmt 4.6, Leading zero omitted, Abs format (unit mm)*
G04 Created by KiCad (PCBNEW 10.0.6) date 2026-09-20 18:46:50*
%MOMM*%
%LPD*%
G01*
G04 APERTURE LIST*
%ADD10C,0.100000*%
%ADD11C,0.120000*%
%ADD12C,0.127000*%
%ADD13C,0.200000*%
G04 APERTURE END LIST*
D10*
X201746966Y-110334109D02*
X201580300Y-110096014D01*
X201461252Y-110334109D02*
X201461252Y-109834109D01*
X201461252Y-109834109D02*
X201651728Y-109834109D01*
X201651728Y-109834109D02*
X201699347Y-109857919D01*
X201699347Y-109857919D02*
X201723157Y-109881728D01*
X201723157Y-109881728D02*
X201746966Y-109929347D01*
X201746966Y-109929347D02*
X201746966Y-110000776D01*
X201746966Y-110000776D02*
X201723157Y-110048395D01*
X201723157Y-110048395D02*
X201699347Y-110072204D01*
X201699347Y-110072204D02*
X201651728Y-110096014D01*
X201651728Y-110096014D02*
X201461252Y-110096014D01*
X202175538Y-110000776D02*
X202175538Y-110334109D01*
X202056490Y-109810300D02*
X201937443Y-110167442D01*
X201937443Y-110167442D02*
X202246966Y-110167442D01*
X214908709Y-105733066D02*
X214884900Y-105709257D01*
X214884900Y-105709257D02*
X214861090Y-105637828D01*
X214861090Y-105637828D02*
X214861090Y-105590209D01*
X214861090Y-105590209D02*
X214884900Y-105518781D01*
X214884900Y-105518781D02*
X214932519Y-105471162D01*
X214932519Y-105471162D02*
X214980138Y-105447352D01*
X214980138Y-105447352D02*
X215075376Y-105423543D01*
X215075376Y-105423543D02*
X215146804Y-105423543D01*
X215146804Y-105423543D02*
X215242042Y-105447352D01*
X215242042Y-105447352D02*
X215289661Y-105471162D01*
X215289661Y-105471162D02*
X215337280Y-105518781D01*
X215337280Y-105518781D02*
X215361090Y-105590209D01*
X215361090Y-105590209D02*
X215361090Y-105637828D01*
X215361090Y-105637828D02*
X215337280Y-105709257D01*
X215337280Y-105709257D02*
X215313471Y-105733066D01*
X215361090Y-105899733D02*
X215361090Y-106209257D01*
X215361090Y-106209257D02*
X215170614Y-106042590D01*
X215170614Y-106042590D02*
X215170614Y-106114019D01*
X215170614Y-106114019D02*
X215146804Y-106161638D01*
X215146804Y-106161638D02*
X215122995Y-106185447D01*
X215122995Y-106185447D02*
X215075376Y-106209257D01*
X215075376Y-106209257D02*
X214956328Y-106209257D01*
X214956328Y-106209257D02*
X214908709Y-106185447D01*
X214908709Y-106185447D02*
X214884900Y-106161638D01*
X214884900Y-106161638D02*
X214861090Y-106114019D01*
X214861090Y-106114019D02*
X214861090Y-105971162D01*
X214861090Y-105971162D02*
X214884900Y-105923543D01*
X214884900Y-105923543D02*
X214908709Y-105899733D01*
X205580466Y-109783090D02*
X205556657Y-109806900D01*
X205556657Y-109806900D02*
X205485228Y-109830709D01*
X205485228Y-109830709D02*
X205437609Y-109830709D01*
X205437609Y-109830709D02*
X205366181Y-109806900D01*
X205366181Y-109806900D02*
X205318562Y-109759280D01*
X205318562Y-109759280D02*
X205294752Y-109711661D01*
X205294752Y-109711661D02*
X205270943Y-109616423D01*
X205270943Y-109616423D02*
X205270943Y-109544995D01*
X205270943Y-109544995D02*
X205294752Y-109449757D01*
X205294752Y-109449757D02*
X205318562Y-109402138D01*
X205318562Y-109402138D02*
X205366181Y-109354519D01*
X205366181Y-109354519D02*
X205437609Y-109330709D01*
X205437609Y-109330709D02*
X205485228Y-109330709D01*
X205485228Y-109330709D02*
X205556657Y-109354519D01*
X205556657Y-109354519D02*
X205580466Y-109378328D01*
X206056657Y-109830709D02*
X205770943Y-109830709D01*
X205913800Y-109830709D02*
X205913800Y-109330709D01*
X205913800Y-109330709D02*
X205866181Y-109402138D01*
X205866181Y-109402138D02*
X205818562Y-109449757D01*
X205818562Y-109449757D02*
X205770943Y-109473566D01*
X194275566Y-91437509D02*
X194108900Y-91199414D01*
X193989852Y-91437509D02*
X193989852Y-90937509D01*
X193989852Y-90937509D02*
X194180328Y-90937509D01*
X194180328Y-90937509D02*
X194227947Y-90961319D01*
X194227947Y-90961319D02*
X194251757Y-90985128D01*
X194251757Y-90985128D02*
X194275566Y-91032747D01*
X194275566Y-91032747D02*
X194275566Y-91104176D01*
X194275566Y-91104176D02*
X194251757Y-91151795D01*
X194251757Y-91151795D02*
X194227947Y-91175604D01*
X194227947Y-91175604D02*
X194180328Y-91199414D01*
X194180328Y-91199414D02*
X193989852Y-91199414D01*
X194704138Y-90937509D02*
X194608900Y-90937509D01*
X194608900Y-90937509D02*
X194561281Y-90961319D01*
X194561281Y-90961319D02*
X194537471Y-90985128D01*
X194537471Y-90985128D02*
X194489852Y-91056557D01*
X194489852Y-91056557D02*
X194466043Y-91151795D01*
X194466043Y-91151795D02*
X194466043Y-91342271D01*
X194466043Y-91342271D02*
X194489852Y-91389890D01*
X194489852Y-91389890D02*
X194513662Y-91413700D01*
X194513662Y-91413700D02*
X194561281Y-91437509D01*
X194561281Y-91437509D02*
X194656519Y-91437509D01*
X194656519Y-91437509D02*
X194704138Y-91413700D01*
X194704138Y-91413700D02*
X194727947Y-91389890D01*
X194727947Y-91389890D02*
X194751757Y-91342271D01*
X194751757Y-91342271D02*
X194751757Y-91223223D01*
X194751757Y-91223223D02*
X194727947Y-91175604D01*
X194727947Y-91175604D02*
X194704138Y-91151795D01*
X194704138Y-91151795D02*
X194656519Y-91127985D01*
X194656519Y-91127985D02*
X194561281Y-91127985D01*
X194561281Y-91127985D02*
X194513662Y-91151795D01*
X194513662Y-91151795D02*
X194489852Y-91175604D01*
X194489852Y-91175604D02*
X194466043Y-91223223D01*
X196751580Y-110443328D02*
X196703961Y-110419519D01*
X196703961Y-110419519D02*
X196656342Y-110371900D01*
X196656342Y-110371900D02*
X196584914Y-110300471D01*
X196584914Y-110300471D02*
X196537295Y-110276661D01*
X196537295Y-110276661D02*
X196489676Y-110276661D01*
X196513485Y-110395709D02*
X196465866Y-110371900D01*
X196465866Y-110371900D02*
X196418247Y-110324280D01*
X196418247Y-110324280D02*
X196394438Y-110229042D01*
X196394438Y-110229042D02*
X196394438Y-110062376D01*
X196394438Y-110062376D02*
X196418247Y-109967138D01*
X196418247Y-109967138D02*
X196465866Y-109919519D01*
X196465866Y-109919519D02*
X196513485Y-109895709D01*
X196513485Y-109895709D02*
X196608723Y-109895709D01*
X196608723Y-109895709D02*
X196656342Y-109919519D01*
X196656342Y-109919519D02*
X196703961Y-109967138D01*
X196703961Y-109967138D02*
X196727771Y-110062376D01*
X196727771Y-110062376D02*
X196727771Y-110229042D01*
X196727771Y-110229042D02*
X196703961Y-110324280D01*
X196703961Y-110324280D02*
X196656342Y-110371900D01*
X196656342Y-110371900D02*
X196608723Y-110395709D01*
X196608723Y-110395709D02*
X196513485Y-110395709D01*
X197203962Y-110395709D02*
X196918248Y-110395709D01*
X197061105Y-110395709D02*
X197061105Y-109895709D01*
X197061105Y-109895709D02*
X197013486Y-109967138D01*
X197013486Y-109967138D02*
X196965867Y-110014757D01*
X196965867Y-110014757D02*
X196918248Y-110038566D01*
X204045333Y-96065290D02*
X204211999Y-96303385D01*
X204331047Y-96065290D02*
X204331047Y-96565290D01*
X204331047Y-96565290D02*
X204140571Y-96565290D01*
X204140571Y-96565290D02*
X204092952Y-96541480D01*
X204092952Y-96541480D02*
X204069142Y-96517671D01*
X204069142Y-96517671D02*
X204045333Y-96470052D01*
X204045333Y-96470052D02*
X204045333Y-96398623D01*
X204045333Y-96398623D02*
X204069142Y-96351004D01*
X204069142Y-96351004D02*
X204092952Y-96327195D01*
X204092952Y-96327195D02*
X204140571Y-96303385D01*
X204140571Y-96303385D02*
X204331047Y-96303385D01*
X203854856Y-96517671D02*
X203831047Y-96541480D01*
X203831047Y-96541480D02*
X203783428Y-96565290D01*
X203783428Y-96565290D02*
X203664380Y-96565290D01*
X203664380Y-96565290D02*
X203616761Y-96541480D01*
X203616761Y-96541480D02*
X203592952Y-96517671D01*
X203592952Y-96517671D02*
X203569142Y-96470052D01*
X203569142Y-96470052D02*
X203569142Y-96422433D01*
X203569142Y-96422433D02*
X203592952Y-96351004D01*
X203592952Y-96351004D02*
X203878666Y-96065290D01*
X203878666Y-96065290D02*
X203569142Y-96065290D01*
X220610133Y-110317709D02*
X220610133Y-110674852D01*
X220610133Y-110674852D02*
X220586324Y-110746280D01*
X220586324Y-110746280D02*
X220538705Y-110793900D01*
X220538705Y-110793900D02*
X220467276Y-110817709D01*
X220467276Y-110817709D02*
X220419657Y-110817709D01*
X221086323Y-110317709D02*
X220848228Y-110317709D01*
X220848228Y-110317709D02*
X220824419Y-110555804D01*
X220824419Y-110555804D02*
X220848228Y-110531995D01*
X220848228Y-110531995D02*
X220895847Y-110508185D01*
X220895847Y-110508185D02*
X221014895Y-110508185D01*
X221014895Y-110508185D02*
X221062514Y-110531995D01*
X221062514Y-110531995D02*
X221086323Y-110555804D01*
X221086323Y-110555804D02*
X221110133Y-110603423D01*
X221110133Y-110603423D02*
X221110133Y-110722471D01*
X221110133Y-110722471D02*
X221086323Y-110770090D01*
X221086323Y-110770090D02*
X221062514Y-110793900D01*
X221062514Y-110793900D02*
X221014895Y-110817709D01*
X221014895Y-110817709D02*
X220895847Y-110817709D01*
X220895847Y-110817709D02*
X220848228Y-110793900D01*
X220848228Y-110793900D02*
X220824419Y-110770090D01*
X200641733Y-100253109D02*
X200665542Y-100229300D01*
X200665542Y-100229300D02*
X200736971Y-100205490D01*
X200736971Y-100205490D02*
X200784590Y-100205490D01*
X200784590Y-100205490D02*
X200856018Y-100229300D01*
X200856018Y-100229300D02*
X200903637Y-100276919D01*
X200903637Y-100276919D02*
X200927447Y-100324538D01*
X200927447Y-100324538D02*
X200951256Y-100419776D01*
X200951256Y-100419776D02*
X200951256Y-100491204D01*
X200951256Y-100491204D02*
X200927447Y-100586442D01*
X200927447Y-100586442D02*
X200903637Y-100634061D01*
X200903637Y-100634061D02*
X200856018Y-100681680D01*
X200856018Y-100681680D02*
X200784590Y-100705490D01*
X200784590Y-100705490D02*
X200736971Y-100705490D01*
X200736971Y-100705490D02*
X200665542Y-100681680D01*
X200665542Y-100681680D02*
X200641733Y-100657871D01*
X200451256Y-100657871D02*
X200427447Y-100681680D01*
X200427447Y-100681680D02*
X200379828Y-100705490D01*
X200379828Y-100705490D02*
X200260780Y-100705490D01*
X200260780Y-100705490D02*
X200213161Y-100681680D01*
X200213161Y-100681680D02*
X200189352Y-100657871D01*
X200189352Y-100657871D02*
X200165542Y-100610252D01*
X200165542Y-100610252D02*
X200165542Y-100562633D01*
X200165542Y-100562633D02*
X200189352Y-100491204D01*
X200189352Y-100491204D02*
X200475066Y-100205490D01*
X200475066Y-100205490D02*
X200165542Y-100205490D01*
X200794133Y-105234690D02*
X200960799Y-105472785D01*
X201079847Y-105234690D02*
X201079847Y-105734690D01*
X201079847Y-105734690D02*
X200889371Y-105734690D01*
X200889371Y-105734690D02*
X200841752Y-105710880D01*
X200841752Y-105710880D02*
X200817942Y-105687071D01*
X200817942Y-105687071D02*
X200794133Y-105639452D01*
X200794133Y-105639452D02*
X200794133Y-105568023D01*
X200794133Y-105568023D02*
X200817942Y-105520404D01*
X200817942Y-105520404D02*
X200841752Y-105496595D01*
X200841752Y-105496595D02*
X200889371Y-105472785D01*
X200889371Y-105472785D02*
X201079847Y-105472785D01*
X200341752Y-105734690D02*
X200579847Y-105734690D01*
X200579847Y-105734690D02*
X200603656Y-105496595D01*
X200603656Y-105496595D02*
X200579847Y-105520404D01*
X200579847Y-105520404D02*
X200532228Y-105544214D01*
X200532228Y-105544214D02*
X200413180Y-105544214D01*
X200413180Y-105544214D02*
X200365561Y-105520404D01*
X200365561Y-105520404D02*
X200341752Y-105496595D01*
X200341752Y-105496595D02*
X200317942Y-105448976D01*
X200317942Y-105448976D02*
X200317942Y-105329928D01*
X200317942Y-105329928D02*
X200341752Y-105282309D01*
X200341752Y-105282309D02*
X200365561Y-105258500D01*
X200365561Y-105258500D02*
X200413180Y-105234690D01*
X200413180Y-105234690D02*
X200532228Y-105234690D01*
X200532228Y-105234690D02*
X200579847Y-105258500D01*
X200579847Y-105258500D02*
X200603656Y-105282309D01*
X216780409Y-109829552D02*
X217185171Y-109829552D01*
X217185171Y-109829552D02*
X217232790Y-109805742D01*
X217232790Y-109805742D02*
X217256600Y-109781933D01*
X217256600Y-109781933D02*
X217280409Y-109734314D01*
X217280409Y-109734314D02*
X217280409Y-109639076D01*
X217280409Y-109639076D02*
X217256600Y-109591457D01*
X217256600Y-109591457D02*
X217232790Y-109567647D01*
X217232790Y-109567647D02*
X217185171Y-109543838D01*
X217185171Y-109543838D02*
X216780409Y-109543838D01*
X216828028Y-109329551D02*
X216804219Y-109305742D01*
X216804219Y-109305742D02*
X216780409Y-109258123D01*
X216780409Y-109258123D02*
X216780409Y-109139075D01*
X216780409Y-109139075D02*
X216804219Y-109091456D01*
X216804219Y-109091456D02*
X216828028Y-109067647D01*
X216828028Y-109067647D02*
X216875647Y-109043837D01*
X216875647Y-109043837D02*
X216923266Y-109043837D01*
X216923266Y-109043837D02*
X216994695Y-109067647D01*
X216994695Y-109067647D02*
X217280409Y-109353361D01*
X217280409Y-109353361D02*
X217280409Y-109043837D01*
X214962690Y-99630752D02*
X215462690Y-99630752D01*
X215462690Y-99630752D02*
X215462690Y-99749800D01*
X215462690Y-99749800D02*
X215438880Y-99821228D01*
X215438880Y-99821228D02*
X215391261Y-99868847D01*
X215391261Y-99868847D02*
X215343642Y-99892657D01*
X215343642Y-99892657D02*
X215248404Y-99916466D01*
X215248404Y-99916466D02*
X215176976Y-99916466D01*
X215176976Y-99916466D02*
X215081738Y-99892657D01*
X215081738Y-99892657D02*
X215034119Y-99868847D01*
X215034119Y-99868847D02*
X214986500Y-99821228D01*
X214986500Y-99821228D02*
X214962690Y-99749800D01*
X214962690Y-99749800D02*
X214962690Y-99630752D01*
X215462690Y-100083133D02*
X215462690Y-100392657D01*
X215462690Y-100392657D02*
X215272214Y-100225990D01*
X215272214Y-100225990D02*
X215272214Y-100297419D01*
X215272214Y-100297419D02*
X215248404Y-100345038D01*
X215248404Y-100345038D02*
X215224595Y-100368847D01*
X215224595Y-100368847D02*
X215176976Y-100392657D01*
X215176976Y-100392657D02*
X215057928Y-100392657D01*
X215057928Y-100392657D02*
X215010309Y-100368847D01*
X215010309Y-100368847D02*
X214986500Y-100345038D01*
X214986500Y-100345038D02*
X214962690Y-100297419D01*
X214962690Y-100297419D02*
X214962690Y-100154562D01*
X214962690Y-100154562D02*
X214986500Y-100106943D01*
X214986500Y-100106943D02*
X215010309Y-100083133D01*
X216732871Y-112316309D02*
X216566205Y-112078214D01*
X216447157Y-112316309D02*
X216447157Y-111816309D01*
X216447157Y-111816309D02*
X216637633Y-111816309D01*
X216637633Y-111816309D02*
X216685252Y-111840119D01*
X216685252Y-111840119D02*
X216709062Y-111863928D01*
X216709062Y-111863928D02*
X216732871Y-111911547D01*
X216732871Y-111911547D02*
X216732871Y-111982976D01*
X216732871Y-111982976D02*
X216709062Y-112030595D01*
X216709062Y-112030595D02*
X216685252Y-112054404D01*
X216685252Y-112054404D02*
X216637633Y-112078214D01*
X216637633Y-112078214D02*
X216447157Y-112078214D01*
X217209062Y-112316309D02*
X216923348Y-112316309D01*
X217066205Y-112316309D02*
X217066205Y-111816309D01*
X217066205Y-111816309D02*
X217018586Y-111887738D01*
X217018586Y-111887738D02*
X216970967Y-111935357D01*
X216970967Y-111935357D02*
X216923348Y-111959166D01*
X217518585Y-111816309D02*
X217566204Y-111816309D01*
X217566204Y-111816309D02*
X217613823Y-111840119D01*
X217613823Y-111840119D02*
X217637633Y-111863928D01*
X217637633Y-111863928D02*
X217661442Y-111911547D01*
X217661442Y-111911547D02*
X217685252Y-112006785D01*
X217685252Y-112006785D02*
X217685252Y-112125833D01*
X217685252Y-112125833D02*
X217661442Y-112221071D01*
X217661442Y-112221071D02*
X217637633Y-112268690D01*
X217637633Y-112268690D02*
X217613823Y-112292500D01*
X217613823Y-112292500D02*
X217566204Y-112316309D01*
X217566204Y-112316309D02*
X217518585Y-112316309D01*
X217518585Y-112316309D02*
X217470966Y-112292500D01*
X217470966Y-112292500D02*
X217447157Y-112268690D01*
X217447157Y-112268690D02*
X217423347Y-112221071D01*
X217423347Y-112221071D02*
X217399538Y-112125833D01*
X217399538Y-112125833D02*
X217399538Y-112006785D01*
X217399538Y-112006785D02*
X217423347Y-111911547D01*
X217423347Y-111911547D02*
X217447157Y-111863928D01*
X217447157Y-111863928D02*
X217470966Y-111840119D01*
X217470966Y-111840119D02*
X217518585Y-111816309D01*
X214606466Y-92097909D02*
X214368371Y-92097909D01*
X214368371Y-92097909D02*
X214368371Y-91597909D01*
X215035038Y-92097909D02*
X214749324Y-92097909D01*
X214892181Y-92097909D02*
X214892181Y-91597909D01*
X214892181Y-91597909D02*
X214844562Y-91669338D01*
X214844562Y-91669338D02*
X214796943Y-91716957D01*
X214796943Y-91716957D02*
X214749324Y-91740766D01*
X198320709Y-94876133D02*
X198082614Y-95042799D01*
X198320709Y-95161847D02*
X197820709Y-95161847D01*
X197820709Y-95161847D02*
X197820709Y-94971371D01*
X197820709Y-94971371D02*
X197844519Y-94923752D01*
X197844519Y-94923752D02*
X197868328Y-94899942D01*
X197868328Y-94899942D02*
X197915947Y-94876133D01*
X197915947Y-94876133D02*
X197987376Y-94876133D01*
X197987376Y-94876133D02*
X198034995Y-94899942D01*
X198034995Y-94899942D02*
X198058804Y-94923752D01*
X198058804Y-94923752D02*
X198082614Y-94971371D01*
X198082614Y-94971371D02*
X198082614Y-95161847D01*
X198320709Y-94399942D02*
X198320709Y-94685656D01*
X198320709Y-94542799D02*
X197820709Y-94542799D01*
X197820709Y-94542799D02*
X197892138Y-94590418D01*
X197892138Y-94590418D02*
X197939757Y-94638037D01*
X197939757Y-94638037D02*
X197963566Y-94685656D01*
X220610133Y-103637509D02*
X220610133Y-103994652D01*
X220610133Y-103994652D02*
X220586324Y-104066080D01*
X220586324Y-104066080D02*
X220538705Y-104113700D01*
X220538705Y-104113700D02*
X220467276Y-104137509D01*
X220467276Y-104137509D02*
X220419657Y-104137509D01*
X221062514Y-103804176D02*
X221062514Y-104137509D01*
X220943466Y-103613700D02*
X220824419Y-103970842D01*
X220824419Y-103970842D02*
X221133942Y-103970842D01*
X220943466Y-102178690D02*
X220943466Y-101821547D01*
X220943466Y-101821547D02*
X220967275Y-101750119D01*
X220967275Y-101750119D02*
X221014894Y-101702500D01*
X221014894Y-101702500D02*
X221086323Y-101678690D01*
X221086323Y-101678690D02*
X221133942Y-101678690D01*
X220729180Y-102131071D02*
X220705371Y-102154880D01*
X220705371Y-102154880D02*
X220657752Y-102178690D01*
X220657752Y-102178690D02*
X220538704Y-102178690D01*
X220538704Y-102178690D02*
X220491085Y-102154880D01*
X220491085Y-102154880D02*
X220467276Y-102131071D01*
X220467276Y-102131071D02*
X220443466Y-102083452D01*
X220443466Y-102083452D02*
X220443466Y-102035833D01*
X220443466Y-102035833D02*
X220467276Y-101964404D01*
X220467276Y-101964404D02*
X220752990Y-101678690D01*
X220752990Y-101678690D02*
X220443466Y-101678690D01*
X220943466Y-95447690D02*
X220943466Y-95090547D01*
X220943466Y-95090547D02*
X220967275Y-95019119D01*
X220967275Y-95019119D02*
X221014894Y-94971500D01*
X221014894Y-94971500D02*
X221086323Y-94947690D01*
X221086323Y-94947690D02*
X221133942Y-94947690D01*
X220752990Y-95447690D02*
X220443466Y-95447690D01*
X220443466Y-95447690D02*
X220610133Y-95257214D01*
X220610133Y-95257214D02*
X220538704Y-95257214D01*
X220538704Y-95257214D02*
X220491085Y-95233404D01*
X220491085Y-95233404D02*
X220467276Y-95209595D01*
X220467276Y-95209595D02*
X220443466Y-95161976D01*
X220443466Y-95161976D02*
X220443466Y-95042928D01*
X220443466Y-95042928D02*
X220467276Y-94995309D01*
X220467276Y-94995309D02*
X220491085Y-94971500D01*
X220491085Y-94971500D02*
X220538704Y-94947690D01*
X220538704Y-94947690D02*
X220681561Y-94947690D01*
X220681561Y-94947690D02*
X220729180Y-94971500D01*
X220729180Y-94971500D02*
X220752990Y-94995309D01*
X214218700Y-112192534D02*
X214194890Y-112263962D01*
X214194890Y-112263962D02*
X214194890Y-112383010D01*
X214194890Y-112383010D02*
X214218700Y-112430629D01*
X214218700Y-112430629D02*
X214242509Y-112454438D01*
X214242509Y-112454438D02*
X214290128Y-112478248D01*
X214290128Y-112478248D02*
X214337747Y-112478248D01*
X214337747Y-112478248D02*
X214385366Y-112454438D01*
X214385366Y-112454438D02*
X214409176Y-112430629D01*
X214409176Y-112430629D02*
X214432985Y-112383010D01*
X214432985Y-112383010D02*
X214456795Y-112287772D01*
X214456795Y-112287772D02*
X214480604Y-112240153D01*
X214480604Y-112240153D02*
X214504414Y-112216343D01*
X214504414Y-112216343D02*
X214552033Y-112192534D01*
X214552033Y-112192534D02*
X214599652Y-112192534D01*
X214599652Y-112192534D02*
X214647271Y-112216343D01*
X214647271Y-112216343D02*
X214671080Y-112240153D01*
X214671080Y-112240153D02*
X214694890Y-112287772D01*
X214694890Y-112287772D02*
X214694890Y-112406819D01*
X214694890Y-112406819D02*
X214671080Y-112478248D01*
X214694890Y-112644914D02*
X214194890Y-112763962D01*
X214194890Y-112763962D02*
X214552033Y-112859200D01*
X214552033Y-112859200D02*
X214194890Y-112954438D01*
X214194890Y-112954438D02*
X214694890Y-113073486D01*
X214194890Y-113525867D02*
X214194890Y-113240153D01*
X214194890Y-113383010D02*
X214694890Y-113383010D01*
X214694890Y-113383010D02*
X214623461Y-113335391D01*
X214623461Y-113335391D02*
X214575842Y-113287772D01*
X214575842Y-113287772D02*
X214552033Y-113240153D01*
X208642733Y-96014490D02*
X208809399Y-96252585D01*
X208928447Y-96014490D02*
X208928447Y-96514490D01*
X208928447Y-96514490D02*
X208737971Y-96514490D01*
X208737971Y-96514490D02*
X208690352Y-96490680D01*
X208690352Y-96490680D02*
X208666542Y-96466871D01*
X208666542Y-96466871D02*
X208642733Y-96419252D01*
X208642733Y-96419252D02*
X208642733Y-96347823D01*
X208642733Y-96347823D02*
X208666542Y-96300204D01*
X208666542Y-96300204D02*
X208690352Y-96276395D01*
X208690352Y-96276395D02*
X208737971Y-96252585D01*
X208737971Y-96252585D02*
X208928447Y-96252585D01*
X208476066Y-96514490D02*
X208166542Y-96514490D01*
X208166542Y-96514490D02*
X208333209Y-96324014D01*
X208333209Y-96324014D02*
X208261780Y-96324014D01*
X208261780Y-96324014D02*
X208214161Y-96300204D01*
X208214161Y-96300204D02*
X208190352Y-96276395D01*
X208190352Y-96276395D02*
X208166542Y-96228776D01*
X208166542Y-96228776D02*
X208166542Y-96109728D01*
X208166542Y-96109728D02*
X208190352Y-96062109D01*
X208190352Y-96062109D02*
X208214161Y-96038300D01*
X208214161Y-96038300D02*
X208261780Y-96014490D01*
X208261780Y-96014490D02*
X208404637Y-96014490D01*
X208404637Y-96014490D02*
X208452256Y-96038300D01*
X208452256Y-96038300D02*
X208476066Y-96062109D01*
X197831566Y-91412109D02*
X197664900Y-91174014D01*
X197545852Y-91412109D02*
X197545852Y-90912109D01*
X197545852Y-90912109D02*
X197736328Y-90912109D01*
X197736328Y-90912109D02*
X197783947Y-90935919D01*
X197783947Y-90935919D02*
X197807757Y-90959728D01*
X197807757Y-90959728D02*
X197831566Y-91007347D01*
X197831566Y-91007347D02*
X197831566Y-91078776D01*
X197831566Y-91078776D02*
X197807757Y-91126395D01*
X197807757Y-91126395D02*
X197783947Y-91150204D01*
X197783947Y-91150204D02*
X197736328Y-91174014D01*
X197736328Y-91174014D02*
X197545852Y-91174014D01*
X197998233Y-90912109D02*
X198331566Y-90912109D01*
X198331566Y-90912109D02*
X198117281Y-91412109D01*
X203194328Y-114525419D02*
X203170519Y-114573038D01*
X203170519Y-114573038D02*
X203122900Y-114620657D01*
X203122900Y-114620657D02*
X203051471Y-114692085D01*
X203051471Y-114692085D02*
X203027661Y-114739704D01*
X203027661Y-114739704D02*
X203027661Y-114787323D01*
X203146709Y-114763514D02*
X203122900Y-114811133D01*
X203122900Y-114811133D02*
X203075280Y-114858752D01*
X203075280Y-114858752D02*
X202980042Y-114882561D01*
X202980042Y-114882561D02*
X202813376Y-114882561D01*
X202813376Y-114882561D02*
X202718138Y-114858752D01*
X202718138Y-114858752D02*
X202670519Y-114811133D01*
X202670519Y-114811133D02*
X202646709Y-114763514D01*
X202646709Y-114763514D02*
X202646709Y-114668276D01*
X202646709Y-114668276D02*
X202670519Y-114620657D01*
X202670519Y-114620657D02*
X202718138Y-114573038D01*
X202718138Y-114573038D02*
X202813376Y-114549228D01*
X202813376Y-114549228D02*
X202980042Y-114549228D01*
X202980042Y-114549228D02*
X203075280Y-114573038D01*
X203075280Y-114573038D02*
X203122900Y-114620657D01*
X203122900Y-114620657D02*
X203146709Y-114668276D01*
X203146709Y-114668276D02*
X203146709Y-114763514D01*
X202694328Y-114358751D02*
X202670519Y-114334942D01*
X202670519Y-114334942D02*
X202646709Y-114287323D01*
X202646709Y-114287323D02*
X202646709Y-114168275D01*
X202646709Y-114168275D02*
X202670519Y-114120656D01*
X202670519Y-114120656D02*
X202694328Y-114096847D01*
X202694328Y-114096847D02*
X202741947Y-114073037D01*
X202741947Y-114073037D02*
X202789566Y-114073037D01*
X202789566Y-114073037D02*
X202860995Y-114096847D01*
X202860995Y-114096847D02*
X203146709Y-114382561D01*
X203146709Y-114382561D02*
X203146709Y-114073037D01*
X214530890Y-107815866D02*
X214768985Y-107649200D01*
X214530890Y-107530152D02*
X215030890Y-107530152D01*
X215030890Y-107530152D02*
X215030890Y-107720628D01*
X215030890Y-107720628D02*
X215007080Y-107768247D01*
X215007080Y-107768247D02*
X214983271Y-107792057D01*
X214983271Y-107792057D02*
X214935652Y-107815866D01*
X214935652Y-107815866D02*
X214864223Y-107815866D01*
X214864223Y-107815866D02*
X214816604Y-107792057D01*
X214816604Y-107792057D02*
X214792795Y-107768247D01*
X214792795Y-107768247D02*
X214768985Y-107720628D01*
X214768985Y-107720628D02*
X214768985Y-107530152D01*
X214816604Y-108101581D02*
X214840414Y-108053962D01*
X214840414Y-108053962D02*
X214864223Y-108030152D01*
X214864223Y-108030152D02*
X214911842Y-108006343D01*
X214911842Y-108006343D02*
X214935652Y-108006343D01*
X214935652Y-108006343D02*
X214983271Y-108030152D01*
X214983271Y-108030152D02*
X215007080Y-108053962D01*
X215007080Y-108053962D02*
X215030890Y-108101581D01*
X215030890Y-108101581D02*
X215030890Y-108196819D01*
X215030890Y-108196819D02*
X215007080Y-108244438D01*
X215007080Y-108244438D02*
X214983271Y-108268247D01*
X214983271Y-108268247D02*
X214935652Y-108292057D01*
X214935652Y-108292057D02*
X214911842Y-108292057D01*
X214911842Y-108292057D02*
X214864223Y-108268247D01*
X214864223Y-108268247D02*
X214840414Y-108244438D01*
X214840414Y-108244438D02*
X214816604Y-108196819D01*
X214816604Y-108196819D02*
X214816604Y-108101581D01*
X214816604Y-108101581D02*
X214792795Y-108053962D01*
X214792795Y-108053962D02*
X214768985Y-108030152D01*
X214768985Y-108030152D02*
X214721366Y-108006343D01*
X214721366Y-108006343D02*
X214626128Y-108006343D01*
X214626128Y-108006343D02*
X214578509Y-108030152D01*
X214578509Y-108030152D02*
X214554700Y-108053962D01*
X214554700Y-108053962D02*
X214530890Y-108101581D01*
X214530890Y-108101581D02*
X214530890Y-108196819D01*
X214530890Y-108196819D02*
X214554700Y-108244438D01*
X214554700Y-108244438D02*
X214578509Y-108268247D01*
X214578509Y-108268247D02*
X214626128Y-108292057D01*
X214626128Y-108292057D02*
X214721366Y-108292057D01*
X214721366Y-108292057D02*
X214768985Y-108268247D01*
X214768985Y-108268247D02*
X214792795Y-108244438D01*
X214792795Y-108244438D02*
X214816604Y-108196819D01*
X204712047Y-92839490D02*
X204712047Y-93339490D01*
X204712047Y-93339490D02*
X204592999Y-93339490D01*
X204592999Y-93339490D02*
X204521571Y-93315680D01*
X204521571Y-93315680D02*
X204473952Y-93268061D01*
X204473952Y-93268061D02*
X204450142Y-93220442D01*
X204450142Y-93220442D02*
X204426333Y-93125204D01*
X204426333Y-93125204D02*
X204426333Y-93053776D01*
X204426333Y-93053776D02*
X204450142Y-92958538D01*
X204450142Y-92958538D02*
X204473952Y-92910919D01*
X204473952Y-92910919D02*
X204521571Y-92863300D01*
X204521571Y-92863300D02*
X204592999Y-92839490D01*
X204592999Y-92839490D02*
X204712047Y-92839490D01*
X204235856Y-93291871D02*
X204212047Y-93315680D01*
X204212047Y-93315680D02*
X204164428Y-93339490D01*
X204164428Y-93339490D02*
X204045380Y-93339490D01*
X204045380Y-93339490D02*
X203997761Y-93315680D01*
X203997761Y-93315680D02*
X203973952Y-93291871D01*
X203973952Y-93291871D02*
X203950142Y-93244252D01*
X203950142Y-93244252D02*
X203950142Y-93196633D01*
X203950142Y-93196633D02*
X203973952Y-93125204D01*
X203973952Y-93125204D02*
X204259666Y-92839490D01*
X204259666Y-92839490D02*
X203950142Y-92839490D01*
X209116709Y-108795333D02*
X208878614Y-108961999D01*
X209116709Y-109081047D02*
X208616709Y-109081047D01*
X208616709Y-109081047D02*
X208616709Y-108890571D01*
X208616709Y-108890571D02*
X208640519Y-108842952D01*
X208640519Y-108842952D02*
X208664328Y-108819142D01*
X208664328Y-108819142D02*
X208711947Y-108795333D01*
X208711947Y-108795333D02*
X208783376Y-108795333D01*
X208783376Y-108795333D02*
X208830995Y-108819142D01*
X208830995Y-108819142D02*
X208854804Y-108842952D01*
X208854804Y-108842952D02*
X208878614Y-108890571D01*
X208878614Y-108890571D02*
X208878614Y-109081047D01*
X209116709Y-108557237D02*
X209116709Y-108461999D01*
X209116709Y-108461999D02*
X209092900Y-108414380D01*
X209092900Y-108414380D02*
X209069090Y-108390571D01*
X209069090Y-108390571D02*
X208997661Y-108342952D01*
X208997661Y-108342952D02*
X208902423Y-108319142D01*
X208902423Y-108319142D02*
X208711947Y-108319142D01*
X208711947Y-108319142D02*
X208664328Y-108342952D01*
X208664328Y-108342952D02*
X208640519Y-108366761D01*
X208640519Y-108366761D02*
X208616709Y-108414380D01*
X208616709Y-108414380D02*
X208616709Y-108509618D01*
X208616709Y-108509618D02*
X208640519Y-108557237D01*
X208640519Y-108557237D02*
X208664328Y-108581047D01*
X208664328Y-108581047D02*
X208711947Y-108604856D01*
X208711947Y-108604856D02*
X208830995Y-108604856D01*
X208830995Y-108604856D02*
X208878614Y-108581047D01*
X208878614Y-108581047D02*
X208902423Y-108557237D01*
X208902423Y-108557237D02*
X208926233Y-108509618D01*
X208926233Y-108509618D02*
X208926233Y-108414380D01*
X208926233Y-108414380D02*
X208902423Y-108366761D01*
X208902423Y-108366761D02*
X208878614Y-108342952D01*
X208878614Y-108342952D02*
X208830995Y-108319142D01*
X203403152Y-105937890D02*
X203403152Y-105533128D01*
X203403152Y-105533128D02*
X203379342Y-105485509D01*
X203379342Y-105485509D02*
X203355533Y-105461700D01*
X203355533Y-105461700D02*
X203307914Y-105437890D01*
X203307914Y-105437890D02*
X203212676Y-105437890D01*
X203212676Y-105437890D02*
X203165057Y-105461700D01*
X203165057Y-105461700D02*
X203141247Y-105485509D01*
X203141247Y-105485509D02*
X203117438Y-105533128D01*
X203117438Y-105533128D02*
X203117438Y-105937890D01*
X202617437Y-105437890D02*
X202903151Y-105437890D01*
X202760294Y-105437890D02*
X202760294Y-105937890D01*
X202760294Y-105937890D02*
X202807913Y-105866461D01*
X202807913Y-105866461D02*
X202855532Y-105818842D01*
X202855532Y-105818842D02*
X202903151Y-105795033D01*
X208770647Y-92864890D02*
X208770647Y-93364890D01*
X208770647Y-93364890D02*
X208651599Y-93364890D01*
X208651599Y-93364890D02*
X208580171Y-93341080D01*
X208580171Y-93341080D02*
X208532552Y-93293461D01*
X208532552Y-93293461D02*
X208508742Y-93245842D01*
X208508742Y-93245842D02*
X208484933Y-93150604D01*
X208484933Y-93150604D02*
X208484933Y-93079176D01*
X208484933Y-93079176D02*
X208508742Y-92983938D01*
X208508742Y-92983938D02*
X208532552Y-92936319D01*
X208532552Y-92936319D02*
X208580171Y-92888700D01*
X208580171Y-92888700D02*
X208651599Y-92864890D01*
X208651599Y-92864890D02*
X208770647Y-92864890D01*
X208008742Y-92864890D02*
X208294456Y-92864890D01*
X208151599Y-92864890D02*
X208151599Y-93364890D01*
X208151599Y-93364890D02*
X208199218Y-93293461D01*
X208199218Y-93293461D02*
X208246837Y-93245842D01*
X208246837Y-93245842D02*
X208294456Y-93222033D01*
X215595890Y-103537533D02*
X215619700Y-103561342D01*
X215619700Y-103561342D02*
X215643509Y-103632771D01*
X215643509Y-103632771D02*
X215643509Y-103680390D01*
X215643509Y-103680390D02*
X215619700Y-103751818D01*
X215619700Y-103751818D02*
X215572080Y-103799437D01*
X215572080Y-103799437D02*
X215524461Y-103823247D01*
X215524461Y-103823247D02*
X215429223Y-103847056D01*
X215429223Y-103847056D02*
X215357795Y-103847056D01*
X215357795Y-103847056D02*
X215262557Y-103823247D01*
X215262557Y-103823247D02*
X215214938Y-103799437D01*
X215214938Y-103799437D02*
X215167319Y-103751818D01*
X215167319Y-103751818D02*
X215143509Y-103680390D01*
X215143509Y-103680390D02*
X215143509Y-103632771D01*
X215143509Y-103632771D02*
X215167319Y-103561342D01*
X215167319Y-103561342D02*
X215191128Y-103537533D01*
X215310176Y-103108961D02*
X215643509Y-103108961D01*
X215119700Y-103228009D02*
X215476842Y-103347056D01*
X215476842Y-103347056D02*
X215476842Y-103037533D01*
X194025090Y-104278133D02*
X193667947Y-104278133D01*
X193667947Y-104278133D02*
X193596519Y-104254324D01*
X193596519Y-104254324D02*
X193548900Y-104206705D01*
X193548900Y-104206705D02*
X193525090Y-104135276D01*
X193525090Y-104135276D02*
X193525090Y-104087657D01*
X193525090Y-104778133D02*
X193525090Y-104492419D01*
X193525090Y-104635276D02*
X194025090Y-104635276D01*
X194025090Y-104635276D02*
X193953661Y-104587657D01*
X193953661Y-104587657D02*
X193906042Y-104540038D01*
X193906042Y-104540038D02*
X193882233Y-104492419D01*
%TO.C,R4*%
D11*
X202057364Y-107723000D02*
X201603236Y-107723000D01*
X202057364Y-109193000D02*
X201603236Y-109193000D01*
%TO.C,C3*%
X207723000Y-103226600D02*
X207723000Y-106526600D01*
X207723000Y-103226600D02*
X213233000Y-103226600D01*
X207723000Y-106526600D02*
X213233000Y-106526600D01*
%TO.C,C1*%
X205925052Y-107189600D02*
X205402548Y-107189600D01*
X205925052Y-108659600D02*
X205402548Y-108659600D01*
%TO.C,R6*%
X194131836Y-91765000D02*
X194585964Y-91765000D01*
X194131836Y-93235000D02*
X194585964Y-93235000D01*
%TO.C,Q1*%
D12*
X195184200Y-110981600D02*
X199684200Y-110981600D01*
X195184200Y-114011600D02*
X199684200Y-114011600D01*
D13*
X193094200Y-111121600D02*
G75*
G02*
X192894200Y-111121600I-100000J0D01*
G01*
X192894200Y-111121600D02*
G75*
G02*
X193094200Y-111121600I100000J0D01*
G01*
%TO.C,R2*%
D11*
X204550064Y-93986800D02*
X204095936Y-93986800D01*
X204550064Y-95456800D02*
X204095936Y-95456800D01*
%TO.C,C2*%
X199874200Y-98381452D02*
X199874200Y-97858948D01*
X201344200Y-98381452D02*
X201344200Y-97858948D01*
%TO.C,R5*%
X199874200Y-103425364D02*
X199874200Y-102971236D01*
X201344200Y-103425364D02*
X201344200Y-102971236D01*
%TO.C,U2*%
X215406800Y-108538600D02*
X215456800Y-108538600D01*
X215406800Y-110358600D02*
X215406800Y-108538600D01*
X215456800Y-110358600D02*
X215406800Y-110358600D01*
X218476800Y-108538600D02*
X218526800Y-108538600D01*
X218526800Y-108538600D02*
X218526800Y-110358600D01*
X218526800Y-110358600D02*
X218476800Y-110358600D01*
X218476800Y-107998600D02*
X218806800Y-107758600D01*
X218806800Y-108238600D01*
X218476800Y-107998600D01*
G36*
X218806800Y-108238600D02*
G01*
X218476800Y-107998600D01*
X218806800Y-107758600D01*
X218806800Y-108238600D01*
G37*
%TO.C,D3*%
X214761800Y-99315000D02*
X209251800Y-99315000D01*
X214761800Y-102615000D02*
X209251800Y-102615000D01*
X214761800Y-102615000D02*
X214761800Y-99315000D01*
%TO.C,R10*%
X217281364Y-112650600D02*
X216827236Y-112650600D01*
X217281364Y-114120600D02*
X216827236Y-114120600D01*
%TO.C,L1*%
X210989800Y-91067400D02*
X218389800Y-91067400D01*
X210989800Y-93367400D02*
X210989800Y-91067400D01*
X210989800Y-98467400D02*
X210989800Y-96167400D01*
X218389800Y-91067400D02*
X218389800Y-93367400D01*
X218389800Y-96167400D02*
X218389800Y-98467400D01*
X218389800Y-98467400D02*
X210989800Y-98467400D01*
%TO.C,R1*%
X200556864Y-93958800D02*
X200102736Y-93958800D01*
X200556864Y-95428800D02*
X200102736Y-95428800D01*
%TO.C,SW1*%
X207911000Y-111499200D02*
X208171000Y-111499200D01*
X207911000Y-114209200D02*
X207911000Y-111509200D01*
X209921000Y-114219200D02*
X207911000Y-114219200D01*
X211701000Y-111499200D02*
X209741000Y-111499200D01*
X213271000Y-111499200D02*
X213271000Y-110959200D01*
X213271000Y-111499200D02*
X213521000Y-111499200D01*
X213531000Y-111499200D02*
X213531000Y-114219200D01*
X213531000Y-114219200D02*
X211521000Y-114219200D01*
%TO.C,R3*%
X208608664Y-93930800D02*
X208154536Y-93930800D01*
X208608664Y-95400800D02*
X208154536Y-95400800D01*
%TO.C,R7*%
X197687836Y-91765000D02*
X198141964Y-91765000D01*
X197687836Y-93235000D02*
X198141964Y-93235000D01*
%TO.C,Q2*%
X203635300Y-111866000D02*
X203685300Y-111866000D01*
X203635300Y-113686000D02*
X203635300Y-111866000D01*
X203685300Y-113686000D02*
X203635300Y-113686000D01*
X206705300Y-111866000D02*
X206755300Y-111866000D01*
X206755300Y-111866000D02*
X206755300Y-113686000D01*
X206755300Y-113686000D02*
X206705300Y-113686000D01*
X206705300Y-111326000D02*
X207035300Y-111086000D01*
X207035300Y-111566000D01*
X206705300Y-111326000D01*
G36*
X207035300Y-111566000D02*
G01*
X206705300Y-111326000D01*
X207035300Y-111086000D01*
X207035300Y-111566000D01*
G37*
%TO.C,R8*%
X212548800Y-108939064D02*
X212548800Y-108484936D01*
X214018800Y-108939064D02*
X214018800Y-108484936D01*
%TO.C,D2*%
X202658000Y-90784800D02*
X202658000Y-92704800D01*
X202658000Y-92704800D02*
X205343000Y-92704800D01*
X205343000Y-90784800D02*
X202658000Y-90784800D01*
%TO.C,R9*%
X209805600Y-108939064D02*
X209805600Y-108484936D01*
X211275600Y-108939064D02*
X211275600Y-108484936D01*
%TO.C,U1*%
X202011600Y-99579600D02*
X202106600Y-99579600D01*
X202011600Y-103699600D02*
X202011600Y-99579600D01*
X202106600Y-103699600D02*
X202011600Y-103699600D01*
X207036600Y-99579600D02*
X207131600Y-99579600D01*
X207131600Y-99579600D02*
X207131600Y-103699600D01*
X207131600Y-103699600D02*
X207036600Y-103699600D01*
X207041600Y-99039600D02*
X207371600Y-98799600D01*
X207371600Y-99279600D01*
X207041600Y-99039600D01*
G36*
X207371600Y-99279600D02*
G01*
X207041600Y-99039600D01*
X207371600Y-98799600D01*
X207371600Y-99279600D01*
G37*
%TO.C,D1*%
X206716600Y-90784800D02*
X206716600Y-92704800D01*
X206716600Y-92704800D02*
X209401600Y-92704800D01*
X209401600Y-90784800D02*
X206716600Y-90784800D01*
%TO.C,C4*%
X215824800Y-106405400D02*
X215824800Y-100895400D01*
X215824800Y-106405400D02*
X219124800Y-106405400D01*
X219124800Y-106405400D02*
X219124800Y-100895400D01*
%TO.C,J1*%
X195224000Y-98200000D02*
X196924000Y-98200000D01*
X195224000Y-107540000D02*
X196924000Y-107540000D01*
%TD*%
M02*
