%TF.GenerationSoftware,KiCad,Pcbnew,10.0.6*%
%TF.CreationDate,2026-09-20T18:46:50+05:30*%
%TF.ProjectId,project2,70726f6a-6563-4743-922e-6b696361645f,rev?*%
%TF.SameCoordinates,Original*%
%TF.FileFunction,Copper,L2,Bot*%
%TF.FilePolarity,Positive*%
%FSLAX46Y46*%
G04 Gerber Fmt 4.6, Leading zero omitted, Abs format (unit mm)*
G04 Created by KiCad (PCBNEW 10.0.6) date 2026-09-20 18:46:50*
%MOMM*%
%LPD*%
G01*
G04 APERTURE LIST*
%TA.AperFunction,HeatsinkPad*%
%ADD10C,0.500000*%
%TD*%
%TA.AperFunction,HeatsinkPad*%
%ADD11R,2.900000X1.900000*%
%TD*%
%TA.AperFunction,ComponentPad*%
%ADD12O,1.700000X1.100000*%
%TD*%
%TA.AperFunction,ViaPad*%
%ADD13C,0.600000*%
%TD*%
%TA.AperFunction,Conductor*%
%ADD14C,0.200000*%
%TD*%
G04 APERTURE END LIST*
D10*
%TO.P,U1,9,EP_9*%
%TO.N,Net-(D1-A)*%
X205771600Y-100939600D03*
X204571600Y-100939600D03*
X203371600Y-100939600D03*
D11*
X204571600Y-101639600D03*
D10*
X205771600Y-102339600D03*
X204571600Y-102339600D03*
X203371600Y-102339600D03*
%TD*%
D12*
%TO.P,J1,SH,SHIELD_SH*%
%TO.N,unconnected-(J1-SHIELD-PadSH)_3*%
X197974000Y-98550000D03*
%TO.N,unconnected-(J1-SHIELD-PadSH)_2*%
X194174000Y-98550000D03*
%TO.N,unconnected-(J1-SHIELD-PadSH)*%
X197974000Y-107190000D03*
%TO.N,unconnected-(J1-SHIELD-PadSH)_1*%
X194174000Y-107190000D03*
%TD*%
D13*
%TO.N,/BAT+*%
X209968100Y-103470200D03*
X215209800Y-110586100D03*
X211489800Y-96371900D03*
X202367100Y-102609900D03*
%TO.N,GND*%
X206955400Y-114279800D03*
X199467000Y-105632100D03*
X211743200Y-106138100D03*
X202131000Y-97187700D03*
X199004600Y-112171600D03*
%TO.N,Net-(J1-CC2)*%
X196144700Y-103370000D03*
X196144700Y-94808000D03*
%TO.N,Net-(Q1-G2)*%
X202476600Y-113400300D03*
X207373500Y-111638500D03*
%TO.N,Net-(U1-~{CHRG})*%
X205235500Y-95937000D03*
X200862500Y-106048700D03*
%TO.N,Net-(Q2-VCC)*%
X201468000Y-100996100D03*
X206714700Y-112785200D03*
%TO.N,Net-(D3-A)*%
X213470300Y-97614600D03*
X218724500Y-108440000D03*
%TO.N,Net-(U1-~{STDBY})*%
X204402200Y-105548000D03*
X207476000Y-95875300D03*
%TO.N,Net-(J1-CC1)*%
X198998900Y-99417300D03*
X201359200Y-91485900D03*
%TD*%
%TO.N,/BAT+*%
D14*
X215209800Y-106086000D02*
X215209800Y-110586100D01*
X211489800Y-96371900D02*
X211489800Y-102366000D01*
X209968100Y-102950100D02*
X209968100Y-103470200D01*
X210552200Y-102366000D02*
X211489800Y-102366000D01*
X211489800Y-102366000D02*
X215209800Y-106086000D01*
X202707300Y-102950100D02*
X209968100Y-102950100D01*
X202367100Y-102609900D02*
X202707300Y-102950100D01*
X209968100Y-102950100D02*
X210552200Y-102366000D01*
%TO.N,GND*%
X199467000Y-99851700D02*
X199467000Y-105632100D01*
X211743200Y-109492000D02*
X211743200Y-106138100D01*
X199467000Y-111864000D02*
X201882800Y-114279800D01*
X201882800Y-114279800D02*
X206955400Y-114279800D01*
X206955400Y-114279800D02*
X211743200Y-109492000D01*
X199467000Y-105632100D02*
X199467000Y-111864000D01*
X202131000Y-97187700D02*
X199467000Y-99851700D01*
X199467000Y-111864000D02*
X199159400Y-112171600D01*
X199159400Y-112171600D02*
X199004600Y-112171600D01*
%TO.N,Net-(D1-A)*%
X204571600Y-100939600D02*
X204571600Y-101639600D01*
X204571600Y-101639600D02*
X204571600Y-102339600D01*
%TO.N,Net-(J1-CC2)*%
X196144700Y-94808000D02*
X196144700Y-103370000D01*
%TO.N,Net-(Q1-G2)*%
X206988200Y-113400300D02*
X207373500Y-113015000D01*
X202476600Y-113400300D02*
X206988200Y-113400300D01*
X207373500Y-113015000D02*
X207373500Y-111638500D01*
%TO.N,Net-(U1-~{CHRG})*%
X200862500Y-100310000D02*
X205235500Y-95937000D01*
X200862500Y-106048700D02*
X200862500Y-100310000D01*
%TO.N,Net-(Q2-VCC)*%
X206714700Y-112785200D02*
X206714700Y-108773900D01*
X201291600Y-101172500D02*
X201468000Y-100996100D01*
X201291600Y-103350800D02*
X201291600Y-101172500D01*
X206714700Y-108773900D02*
X201291600Y-103350800D01*
%TO.N,Net-(D3-A)*%
X213470300Y-103185800D02*
X213470300Y-97614600D01*
X218724500Y-108440000D02*
X213470300Y-103185800D01*
%TO.N,Net-(U1-~{STDBY})*%
X201729300Y-101622000D02*
X201729300Y-102875100D01*
X207476000Y-95875300D02*
X201729300Y-101622000D01*
X201729300Y-102875100D02*
X204402200Y-105548000D01*
%TO.N,Net-(J1-CC1)*%
X201359200Y-91485900D02*
X201359200Y-97057000D01*
X201359200Y-97057000D02*
X198998900Y-99417300D01*
%TD*%
M02*
