M48
; DRILL file KiCad 10.0.6 date 2026-09-20T18:48:09
; FORMAT={-:-/ absolute / metric / decimal}
; #@! TF.CreationDate,2026-09-20T18:48:09+05:30
; #@! TF.GenerationSoftware,Kicad,Pcbnew,10.0.6
; #@! TF.FileFunction,Plated,1,2,PTH
FMAT,2
METRIC
; #@! TA.AperFunction,Plated,PTH,ComponentDrill
T1C0.200
; #@! TA.AperFunction,Plated,PTH,ViaDrill
T2C0.300
; #@! TA.AperFunction,Plated,PTH,ComponentDrill
T3C0.600
%
G90
G05
T1
X203.372Y-100.94
X203.372Y-102.34
X204.572Y-100.94
X204.572Y-102.34
X205.772Y-100.94
X205.772Y-102.34
T2
X196.145Y-94.808
X196.145Y-103.37
X198.999Y-99.417
X199.005Y-112.172
X199.467Y-105.632
X200.862Y-106.049
X201.359Y-91.486
X201.468Y-100.996
X202.131Y-97.188
X202.367Y-102.61
X202.477Y-113.4
X204.402Y-105.548
X205.236Y-95.937
X206.715Y-112.785
X206.955Y-114.28
X207.373Y-111.638
X207.476Y-95.875
X209.968Y-103.47
X211.49Y-96.372
X211.743Y-106.138
X213.47Y-97.615
X215.21Y-110.586
X218.724Y-108.44
T3
G00X194.474Y-98.55
M15
G01X193.874Y-98.55
M16
G05
G00X194.474Y-107.19
M15
G01X193.874Y-107.19
M16
G05
G00X198.274Y-98.55
M15
G01X197.674Y-98.55
M16
G05
G00X198.274Y-107.19
M15
G01X197.674Y-107.19
M16
G05
M30
